<svg width="148" height="292" viewBox="0 0 148 292" fill="none" xmlns="http://www.w3.org/2000/svg">
<path opacity="0.1" d="M70.7826 241.058C96.7106 260.216 118 308.803 118 308.803H-63V52C-63 52 -8.78992 80.3687 4.67826 113.444C19.8723 150.757 -32.6022 184.025 -7.91304 215.85C11.878 241.361 44.8217 221.875 70.7826 241.058Z" fill="white"/>
<path opacity="0.1" d="M103.714 223.533C130.493 246.49 148 302.366 148 302.366H-82V-23H-26.2857C-26.2857 -23 -56.0441 15.1394 -50.5714 41.4998C-43.1181 77.4004 11.8199 58.0984 29.4286 90.233C48.5592 125.145 -0.860794 159.628 22.2857 191.999C42.155 219.788 77.7994 201.316 103.714 223.533Z" fill="white"/>
</svg>
