<svg width="33" height="32" viewBox="0 0 33 32" fill="none" xmlns="http://www.w3.org/2000/svg">
<g clip-path="url(#clip0_24_272)">
<path d="M22.0965 11.1333C22.4832 11.92 23.4165 12.6133 24.3098 12.7866L27.7232 13.3466C29.0832 13.5733 29.2832 14.16 28.2832 15.16L25.6298 17.8C24.9365 18.48 24.5898 19.7066 24.8165 20.6666L25.5632 23.9333C25.9632 25.6533 25.4965 25.9866 23.9765 25.08L20.7765 23.1733C19.8832 22.6266 18.5232 22.6266 17.6298 23.1733L14.4432 25.0533C12.9099 25.9466 12.4565 25.6133 12.8565 23.8933L13.6165 20.6C13.8299 19.6533 13.4832 18.44 12.8032 17.7333L10.1365 15.0666C9.14985 14.08 9.33653 13.48 10.7099 13.24L14.0965 12.68C14.9765 12.5333 15.9365 11.8133 16.3365 11L18.2032 7.23995C18.8298 5.93329 19.4298 5.93329 20.0832 7.23995L22.0965 11.1333ZM22.0032 6.47995C20.6032 3.69329 17.8965 3.69329 16.5232 6.47995L14.6432 10.2266C14.5232 10.4533 14.1098 10.76 13.8699 10.8L10.4565 11.36C7.46987 11.8666 6.65653 14.4266 8.78987 16.56L11.4299 19.2C11.6165 19.4 11.7632 19.92 11.7099 20.1866L10.9365 23.4666C10.1365 26.9066 12.4432 28.5866 15.4832 26.7866L18.6698 24.88C18.9232 24.72 19.4832 24.72 19.7365 24.8666L22.9232 26.76C25.9498 28.56 28.2698 26.8666 27.4698 23.4266L26.7098 20.1466C26.6298 19.8533 26.7898 19.3333 26.9765 19.1333L29.6298 16.48C31.7498 14.32 30.9365 11.76 27.9632 11.2666L24.5498 10.6933C24.2832 10.64 23.8832 10.3333 23.7765 10.12L22.0032 6.47995Z" fill="#A1C038"/>
<path opacity="0.3" d="M21.8266 7.26114C20.5408 4.6907 18.0546 4.6907 16.7933 7.26114L15.0665 10.7171C14.9562 10.9262 14.5766 11.209 14.3562 11.2459L11.2211 11.7625C8.47786 12.2298 7.73082 14.5912 9.69027 16.5589L12.1151 18.9941C12.2865 19.1786 12.4213 19.6582 12.3723 19.9043L11.662 22.9297C10.9272 26.1028 13.0458 27.6524 15.8381 25.9921L18.765 24.2333C18.9977 24.0858 19.512 24.0859 19.7448 24.2211L22.6716 25.9674C25.4516 27.6278 27.5825 26.0658 26.8477 22.8928L26.1497 19.8673C26.0762 19.5968 26.2232 19.1171 26.3946 18.9327L28.8317 16.4852C30.7789 14.4928 30.0318 12.1314 27.3009 11.6764L24.1657 11.1475C23.9208 11.0983 23.5534 10.8155 23.4554 10.6187L21.8266 7.26114Z" fill="#A1C038"/>
<path d="M11.2567 5.66669H3.25665C2.69665 5.66669 2.25665 6.10669 2.25665 6.66669C2.25665 7.21335 2.69665 7.66669 3.25665 7.66669H11.2567C11.8033 7.66669 12.2567 7.21335 12.2567 6.66669C12.2567 6.10669 11.8033 5.66669 11.2567 5.66669Z" fill="#004A2C"/>
<path d="M7.25665 24.3333H3.25665C2.69665 24.3333 2.25665 24.7733 2.25665 25.3333C2.25665 25.88 2.69665 26.3333 3.25665 26.3333H7.25665C7.80332 26.3333 8.25665 25.88 8.25665 25.3333C8.25665 24.7733 7.80332 24.3333 7.25665 24.3333Z" fill="#004A2C"/>
<path d="M4.58999 15H3.25665C2.69665 15 2.25665 15.44 2.25665 16C2.25665 16.5467 2.69665 17 3.25665 17H4.58999C5.13665 17 5.58999 16.5467 5.58999 16C5.58999 15.44 5.13665 15 4.58999 15Z" fill="#004A2C"/>
</g>
<defs>
<clipPath id="clip0_24_272">
<rect width="32" height="32" fill="white" transform="translate(0.589966)"/>
</clipPath>
</defs>
</svg>
