<svg width="32" height="32" viewBox="0 0 32 32" fill="none" xmlns="http://www.w3.org/2000/svg">
<g clip-path="url(#clip0_24_290)">
<path opacity="0.2" d="M28 11.2834C28 6.72335 25.5261 4.66669 20.9231 4.66669H11.0769C6.46153 4.66669 4 6.72335 4 11.2834V22.05C4 26.5974 6.46153 29.3334 11.0769 29.3334H20.9231C25.5261 29.3334 28 26.5974 28 22.05V11.2834Z" fill="#A1C038"/>
<path d="M4.66663 13.1066H27.3333C27.88 13.1066 28.3333 12.6533 28.3333 12.1066C28.3333 11.5466 27.88 11.1066 27.3333 11.1066H4.66663C4.10663 11.1066 3.66663 11.5466 3.66663 12.1066C3.66663 12.6533 4.10663 13.1066 4.66663 13.1066Z" fill="#A1C038"/>
<path fill-rule="evenodd" clip-rule="evenodd" d="M9.66667 5.71417V6.66669C9.66667 7.21335 10.1067 7.66669 10.6667 7.66669C11.2133 7.66669 11.6667 7.21335 11.6667 6.66669V5.66669H20.3333V6.66669C20.3333 7.21335 20.7733 7.66669 21.3333 7.66669C21.88 7.66669 22.3333 7.21335 22.3333 6.66669V5.71447C25.5012 6.03287 27 7.93923 27 11.3334V22.6667C27 26.3867 25.1867 28.3334 21.3333 28.3334H10.6667C6.8 28.3334 5 26.3867 5 22.6667V11.3334C5 7.93817 6.48869 6.03167 9.66667 5.71417ZM9.66667 3.70719C5.31192 4.07082 3 6.86402 3 11.3334V22.6667C3 27.4534 5.66667 30.3334 10.6667 30.3334H21.3333C26.32 30.3334 29 27.4534 29 22.6667V11.3334C29 6.86483 26.6773 4.07185 22.3333 3.70739V2.66669C22.3333 2.10669 21.88 1.66669 21.3333 1.66669C20.7733 1.66669 20.3333 2.10669 20.3333 2.66669V3.66669H11.6667V2.66669C11.6667 2.10669 11.2133 1.66669 10.6667 1.66669C10.1067 1.66669 9.66667 2.10669 9.66667 2.66669V3.70719Z" fill="#A1C038"/>
<path d="M20.9203 19.6C21.6536 19.6 22.2536 19 22.2536 18.2667C22.2536 17.52 21.6536 16.9333 20.9203 16.9333H20.9069C20.1603 16.9333 19.5736 17.52 19.5736 18.2667C19.5736 19 20.1603 19.6 20.9069 19.6H20.9203Z" fill="#004A2C"/>
<path d="M20.9203 23.6C21.6536 23.6 22.2536 23 22.2536 22.2667C22.2536 21.52 21.6536 20.9333 20.9203 20.9333H20.9069C20.1603 20.9333 19.5736 21.52 19.5736 22.2667C19.5736 23 20.1603 23.6 20.9069 23.6H20.9203Z" fill="#004A2C"/>
<path d="M15.9867 19.6C16.72 19.6 17.32 19 17.32 18.2667C17.32 17.52 16.72 16.9333 15.9867 16.9333H15.9733C15.2267 16.9333 14.64 17.52 14.64 18.2667C14.64 19 15.2267 19.6 15.9733 19.6H15.9867Z" fill="#004A2C"/>
<path d="M15.9867 23.6C16.72 23.6 17.32 23 17.32 22.2667C17.32 21.52 16.72 20.9333 15.9867 20.9333H15.9733C15.2267 20.9333 14.64 21.52 14.64 22.2667C14.64 23 15.2267 23.6 15.9733 23.6H15.9867Z" fill="#004A2C"/>
<path d="M11.0531 19.6C11.7864 19.6 12.3864 19 12.3864 18.2667C12.3864 17.52 11.7864 16.9333 11.0531 16.9333H11.0397C10.2931 16.9333 9.70642 17.52 9.70642 18.2667C9.70642 19 10.2931 19.6 11.0397 19.6H11.0531Z" fill="#004A2C"/>
<path d="M11.0531 23.6C11.7864 23.6 12.3864 23 12.3864 22.2667C12.3864 21.52 11.7864 20.9333 11.0531 20.9333H11.0397C10.2931 20.9333 9.70642 21.52 9.70642 22.2667C9.70642 23 10.2931 23.6 11.0397 23.6H11.0531Z" fill="#004A2C"/>
</g>
<defs>
<clipPath id="clip0_24_290">
<rect width="32" height="32" fill="white"/>
</clipPath>
</defs>
</svg>
