<svg width="33" height="32" viewBox="0 0 33 32" fill="none" xmlns="http://www.w3.org/2000/svg">
<g clip-path="url(#clip0_24_303)">
<g clip-path="url(#clip1_24_303)">
<path opacity="0.3" d="M28.2 12.2334C28.2 7.91335 25.9825 4.66669 21.3794 4.66669H11.5333C6.9179 4.66669 4.19995 7.91335 4.19995 12.2334V22.4334C4.19995 26.7414 6.66148 29.3334 11.2769 29.3334H14.4564L28.2 15.7667V12.2334Z" fill="#A1C038"/>
<path d="M16.2 28.3334H10.8666C6.99995 28.3334 5.19995 26.3867 5.19995 22.6667V11.3334C5.19995 7.60002 6.99995 5.66669 10.8666 5.66669H21.5333C25.3866 5.66669 27.2 7.60002 27.2 11.3334V16C27.2 16.5467 27.64 17 28.2 17C28.7466 17 29.2 16.5467 29.2 16V11.3334C29.2 6.53335 26.52 3.66669 21.5333 3.66669H10.8666C5.86662 3.66669 3.19995 6.53335 3.19995 11.3334V22.6667C3.19995 27.4534 5.86662 30.3334 10.8666 30.3334H16.2C16.7466 30.3334 17.2 29.88 17.2 29.3334C17.2 28.7734 16.7466 28.3334 16.2 28.3334Z" fill="#A1C038"/>
<path fill-rule="evenodd" clip-rule="evenodd" d="M9.86658 2.66669V6.66669C9.86658 7.21335 10.3066 7.66669 10.8666 7.66669C11.4132 7.66669 11.8666 7.21335 11.8666 6.66669V2.66669C11.8666 2.10669 11.4132 1.66669 10.8666 1.66669C10.3066 1.66669 9.86658 2.10669 9.86658 2.66669ZM20.5332 2.66669V6.66669C20.5332 7.21335 20.9732 7.66669 21.5332 7.66669C22.0799 7.66669 22.5332 7.21335 22.5332 6.66669V2.66669C22.5332 2.10669 22.0799 1.66669 21.5332 1.66669C20.9732 1.66669 20.5332 2.10669 20.5332 2.66669ZM10.8666 17.2667H20.1999C20.7466 17.2667 21.1999 16.8134 21.1999 16.2667C21.1999 15.7067 20.7466 15.2667 20.1999 15.2667H10.8666C10.3066 15.2667 9.86658 15.7067 9.86658 16.2667C9.86658 16.8134 10.3066 17.2667 10.8666 17.2667ZM10.8666 22.6H16.7066C17.2532 22.6 17.7066 22.1467 17.7066 21.6C17.7066 21.04 17.2532 20.6 16.7066 20.6H10.8666C10.3066 20.6 9.86658 21.04 9.86658 21.6C9.86658 22.1467 10.3066 22.6 10.8666 22.6ZM20.3732 25.0267L25.0932 20.3067C26.0666 19.3334 27.7919 18.632 29.3999 20.24C30.8799 21.7334 30.7332 23.28 29.3999 24.6267L24.7066 29.3334C24.3866 29.6934 23.8132 29.9734 23.3332 30.0534L21.5466 30.3067C20.2399 30.4934 19.2132 29.48 19.4132 28.1734L19.6799 26.36C19.7599 25.8934 20.0266 25.36 20.3732 25.0267ZM28.0266 21.7067C27.3999 21.0667 27.1066 21.1067 26.5066 21.72L25.9195 22.2907C26.2239 22.9726 26.8088 23.5022 27.5384 23.7254L28.0266 23.24C28.6266 22.6267 28.6666 22.3467 28.0266 21.7067ZM21.7332 26.36L24.7264 23.4504C25.1106 24.0792 25.6542 24.5975 26.3066 24.9503L23.2932 27.9467C23.2532 27.9734 23.1066 28.0534 23.0532 28.0534L21.3904 28.2767L21.6266 26.5867C21.6266 26.5467 21.7066 26.4 21.7332 26.36ZM21.2666 28.2934L21.2694 28.293L21.2666 28.2934Z" fill="#004A2C"/>
</g>
</g>
<defs>
<clipPath id="clip0_24_303">
<rect width="32" height="32" fill="white" transform="translate(0.199951)"/>
</clipPath>
<clipPath id="clip1_24_303">
<rect width="32" height="32" fill="white" transform="translate(0.199951)"/>
</clipPath>
</defs>
</svg>
