<svg width="33" height="32" viewBox="0 0 33 32" fill="none" xmlns="http://www.w3.org/2000/svg">
<g clip-path="url(#clip0_24_281)">
<g clip-path="url(#clip1_24_281)">
<path opacity="0.3" fill-rule="evenodd" clip-rule="evenodd" d="M20.8055 3.201C20.9342 3.07279 21.3352 2.67262 21.9267 2.66676C22.3534 2.66254 22.7935 2.83239 23.1592 3.20376C23.5091 3.55907 23.7535 4.05844 23.9116 4.67234L27.9714 20.4307C28.0326 20.6679 28.1203 21.2639 28.0635 21.8268C28.0362 22.0995 27.9624 22.5093 27.7159 22.8609C27.582 23.0519 27.3904 23.2345 27.1302 23.3495C26.8695 23.4645 26.5998 23.4852 26.35 23.4483C25.5099 23.3244 20.9226 22.2409 18.3966 21.6351C18.2423 21.5981 18.0824 21.6009 17.93 21.6436L9.50694 23.9909C8.85798 24.1719 8.1041 24.1329 7.44662 23.7267C3.61401 21.3588 2.26732 16.356 4.65842 12.5822C5.03904 11.9814 5.62006 11.6265 6.19396 11.4665L14.6871 9.09962C14.8428 9.05624 14.9855 8.97288 15.1022 8.85722L20.7935 3.21319C20.7972 3.20946 20.8012 3.20539 20.8055 3.201Z" fill="#A1C038"/>
<path fill-rule="evenodd" clip-rule="evenodd" d="M16.4362 10.3123L21.9347 4.85934C21.9694 4.9408 22.0075 5.0495 22.0444 5.1927L26.1043 20.951L26.1047 20.9534L26.105 20.955C26.1086 20.9738 26.1251 21.0608 26.1371 21.1945C26.1423 21.2526 26.1459 21.3111 26.1478 21.3685C24.7408 21.0789 21.0832 20.216 18.8307 19.676C18.3688 19.5652 17.8879 19.5739 17.4296 19.7016L9.00662 22.049C8.76767 22.1156 8.56671 22.0803 8.43389 21.9981C5.44241 20.15 4.55483 16.3995 6.27255 13.6884C6.34158 13.5795 6.47883 13.4686 6.69429 13.4086L15.1875 11.0416C15.6559 10.9111 16.0852 10.6604 16.4362 10.3123ZM20.8056 3.20086L20.7935 3.21319L15.1022 8.85722C14.9855 8.97288 14.8428 9.05624 14.6871 9.09962L6.19396 11.4666C5.62006 11.6265 5.03904 11.9814 4.65842 12.5822C2.26732 16.356 3.61401 21.3588 7.44662 23.7267C8.1041 24.1329 8.85798 24.1719 9.50694 23.991L11.0149 23.5707L12.2924 28.321C12.357 28.5614 12.5142 28.7668 12.7297 28.8927C13.5799 29.3896 14.6027 29.4286 15.4756 29.1956C16.3487 28.9624 17.2148 28.4192 17.7018 27.5652C17.8252 27.3488 17.8582 27.0927 17.7935 26.8523L16.5 22.0422L17.93 21.6436C18.0824 21.601 18.2423 21.5982 18.3966 21.6351C20.9226 22.2409 25.5099 23.3244 26.35 23.4483C26.5998 23.4852 26.8695 23.4646 27.1302 23.3495C27.3904 23.2346 27.582 23.0519 27.7159 22.861C27.9624 22.5094 28.0362 22.0995 28.0635 21.8268C28.1203 21.2639 28.0326 20.6679 27.9714 20.4307L23.9116 4.67234C23.7535 4.05844 23.5091 3.55907 23.1592 3.20376C22.7935 2.83239 22.3534 2.66254 21.9267 2.66676C21.3354 2.67262 20.9344 3.07248 20.8056 3.20086ZM12.8459 23.0604L14.669 22.5524L15.8378 26.899C15.6314 27.1016 15.3367 27.2716 14.9836 27.3659C14.6304 27.4602 14.29 27.4598 14.0094 27.387L12.8459 23.0604Z" fill="#A1C038"/>
<path fill-rule="evenodd" clip-rule="evenodd" d="M24.7561 7.87088C24.2301 7.98877 23.8914 8.5482 23.9998 9.12041C24.1081 9.69261 24.6225 10.0609 25.1483 9.94301C25.5517 9.85267 26.2129 9.84097 26.8047 10.092C27.3474 10.3222 27.8563 10.7765 28.0926 11.7357C28.3289 12.6948 28.0969 13.3651 27.7326 13.8597C27.3354 14.3989 26.7574 14.7485 26.3669 14.8896C25.8571 15.0736 25.581 15.6723 25.7502 16.2267C25.9194 16.7812 26.4697 17.0816 26.9794 16.8976C27.645 16.6572 28.5703 16.1061 29.2503 15.1824C29.9635 14.2143 30.3827 12.8592 29.9711 11.1881C29.5595 9.517 28.5737 8.57163 27.511 8.12088C26.4975 7.69096 25.4429 7.71693 24.7561 7.87088ZM9.30666 15.8344C8.7945 15.9899 8.49056 16.5859 8.6278 17.1659C8.76503 17.7457 9.29146 18.0899 9.80362 17.9345L16.0881 16.0279C16.6003 15.8724 16.9043 15.2763 16.767 14.6964C16.6298 14.1167 16.1033 13.7724 15.5913 13.9277L9.30666 15.8344Z" fill="#004A2C"/>
</g>
</g>
<defs>
<clipPath id="clip0_24_281">
<rect width="32" height="32" fill="white" transform="translate(0.799927)"/>
</clipPath>
<clipPath id="clip1_24_281">
<rect width="32" height="32" fill="white" transform="translate(0.799927)"/>
</clipPath>
</defs>
</svg>
