<svg width="33" height="32" viewBox="0 0 33 32" fill="none" xmlns="http://www.w3.org/2000/svg">
<g clip-path="url(#clip0_24_312)">
<path opacity="0.3" d="M5.97461 20.0344C6.09845 20.1583 6.25945 20.5419 6.25945 20.7524V23.4012C6.25945 24.998 7.55981 26.31 9.16978 26.31H11.82C12.0182 26.31 12.4145 26.471 12.5507 26.6195L14.4208 28.4886C15.5477 29.615 17.3931 29.615 18.5324 28.4886L20.4148 26.6071C20.5511 26.4586 20.9473 26.2854 21.1455 26.2854H23.8081C25.4057 26.2854 26.706 24.9732 26.706 23.3642V20.7028C26.706 20.4924 26.8671 20.0963 27.0157 19.9602L28.8981 18.0787C30.0251 16.94 30.0251 15.0956 28.8981 13.957L27.0033 12.0631C26.8547 11.9145 26.6813 11.5184 26.6813 11.3204V8.64676C26.6813 7.03764 25.3685 5.73796 23.7709 5.73796H21.096C20.8855 5.73796 20.4891 5.56467 20.3529 5.41614L18.4704 3.52231C17.3311 2.38355 15.4859 2.38355 14.3464 3.50994L12.464 5.39138C12.3154 5.52754 11.9191 5.70083 11.721 5.70083H9.05831C7.44834 5.70083 6.13561 7.00051 6.13561 8.59726V11.2585C6.13561 11.4565 5.96222 11.8526 5.81361 11.9888L3.93118 13.8703C2.79182 14.9967 2.79182 16.841 3.93118 17.9798L5.80122 19.8488L5.97461 20.0344Z" fill="#A1C038"/>
<path d="M6.4369 18.8265L4.41023 16.7999C3.97023 16.3599 3.97023 15.6265 4.3969 15.1999L6.41023 13.1599C6.93023 12.6266 7.3169 11.6933 7.3169 10.9333V8.05327C7.3169 7.4266 7.82357 6.91993 8.45023 6.91993H11.3036C12.0502 6.91993 12.9836 6.51993 13.5169 5.99993L15.5302 3.95993C15.9569 3.51993 16.6902 3.51993 17.1169 3.95993L19.1302 5.9866C19.6502 6.5066 20.5835 6.89327 21.3435 6.89327H24.2102C24.8235 6.89327 25.3302 7.39993 25.3302 8.01327V10.8799C25.3302 11.6266 25.7169 12.5599 26.2369 13.0933L28.2635 15.1199C28.6902 15.5465 28.6902 16.2799 28.2502 16.7065L26.2102 18.7199C25.6769 19.2399 25.2902 20.1732 25.2902 20.9332V23.7865C25.2902 24.3999 24.7702 24.9199 24.1569 24.9199H21.2769C20.5169 24.9199 19.5835 25.3065 19.0502 25.8265L17.0235 27.8532C16.5835 28.2799 15.8502 28.2799 15.4235 27.8532L13.3969 25.8265C12.8636 25.2932 11.9302 24.9065 11.1702 24.9065H8.30357C7.6769 24.9065 7.1569 24.3865 7.1569 23.7599V20.8932C7.1569 20.1199 6.7569 19.1865 6.21023 18.6532L6.4369 18.8265ZM5.02357 20.2532C5.1569 20.3865 5.33023 20.7999 5.33023 21.0265V23.8799C5.33023 25.5999 6.73023 27.0132 8.46357 27.0132H11.3169C11.5302 27.0132 11.9569 27.1865 12.1036 27.3465L14.1169 29.3599C15.3302 30.5732 17.3169 30.5732 18.5435 29.3599L20.5702 27.3332C20.7169 27.1732 21.1435 26.9865 21.3569 26.9865H24.2235C25.9435 26.9865 27.3435 25.5732 27.3435 23.8399V20.9732C27.3435 20.7465 27.5169 20.3199 27.6769 20.1732L29.7035 18.1465C30.9169 16.9199 30.9169 14.9332 29.7035 13.7065L27.6635 11.6666C27.5035 11.5066 27.3169 11.0799 27.3169 10.8666V7.9866C27.3169 6.25327 25.9035 4.85327 24.1835 4.85327H21.3035C21.0769 4.85327 20.6502 4.6666 20.5035 4.5066L18.4769 2.4666C17.2502 1.23993 15.2635 1.23993 14.0369 2.45327L12.0102 4.47993C11.8502 4.6266 11.4236 4.81327 11.2102 4.81327H8.34357C6.61023 4.81327 5.1969 6.21327 5.1969 7.93327V10.7999C5.1969 11.0133 5.01023 11.4399 4.85023 11.5866L2.82357 13.6132C1.5969 14.8265 1.5969 16.8132 2.82357 18.0399L4.8369 20.0532L5.02357 20.2532Z" fill="#A1C038"/>
<path fill-rule="evenodd" clip-rule="evenodd" d="M13.1166 20.7067L21.1166 12.7066C21.5033 12.3066 21.5033 11.68 21.1166 11.28C20.7166 10.88 20.0899 10.88 19.6899 11.28L11.6899 19.28C11.2899 19.6667 11.2899 20.2933 11.6899 20.6933C12.0766 21.08 12.7032 21.08 13.1032 20.6933L13.1166 20.7067ZM19.7299 20.6667C20.4633 20.6667 21.0633 20.0667 21.0633 19.3333C21.0633 18.5867 20.4633 18 19.7299 18H19.7166C18.9699 18 18.3833 18.5867 18.3833 19.3333C18.3833 20.0667 18.9699 20.6667 19.7166 20.6667H19.7299ZM14.3966 12.6667C14.3966 13.4 13.7966 14 13.0632 14H13.0499C12.3032 14 11.7166 13.4 11.7166 12.6667C11.7166 11.92 12.3032 11.3333 13.0499 11.3333H13.0632C13.7966 11.3333 14.3966 11.92 14.3966 12.6667Z" fill="#004A2C"/>
</g>
<defs>
<clipPath id="clip0_24_312">
<rect width="32" height="32" fill="white" transform="translate(0.410034)"/>
</clipPath>
</defs>
</svg>
