<svg width="80" height="80" viewBox="0 0 80 80" fill="none" xmlns="http://www.w3.org/2000/svg">
<path d="M65.1961 41.5205C65.1961 56.6447 53.0501 68.9052 38.0673 68.9052C23.0845 68.9052 10.9385 56.6447 10.9385 41.5205C10.9385 26.3963 23.0845 14.1357 38.0673 14.1357C53.0501 14.1357 65.1961 26.3963 65.1961 41.5205Z" fill="url(#paint0_linear_6284_235690)"/>
<path d="M39.1599 62.459C39.0671 61.9338 39.0187 61.3936 39.0187 60.8421C39.0187 55.6834 43.2545 51.5015 48.4797 51.5015C52.3642 51.5015 55.7019 53.8127 57.159 57.1183C58.3394 56.1121 59.8711 55.5046 61.5449 55.5046C65.2772 55.5046 68.3028 58.5249 68.3028 62.2506C68.3028 62.4581 68.2934 62.6634 68.2751 62.8661C70.0702 63.7342 71.3063 65.5557 71.3063 67.6623C71.3063 70.6101 68.8858 72.9998 65.9 72.9998H40.3702C37.3844 72.9998 34.9639 70.6101 34.9639 67.6623C34.9639 65.1253 36.7568 63.0016 39.1599 62.459Z" fill="url(#paint1_linear_6284_235690)"/>
<defs>
<linearGradient id="paint0_linear_6284_235690" x1="33.9465" y1="56.4261" x2="56.5855" y2="17.0918" gradientUnits="userSpaceOnUse">
<stop stop-color="#FF9900"/>
<stop offset="1" stop-color="#FFEE94"/>
</linearGradient>
<linearGradient id="paint1_linear_6284_235690" x1="68.9948" y1="71.0803" x2="32.4242" y2="43.6358" gradientUnits="userSpaceOnUse">
<stop stop-color="white"/>
<stop offset="1" stop-color="white" stop-opacity="0.58"/>
</linearGradient>
</defs>
</svg>
